# xmcd CD database file
#
# Track frame offsets:
#	183
#	11120
#	21688
#	31923
#	47575
#	61938
#	74095
#	83860
#	97005
#	111228
#	124760
#	135105
#
# Disc length: 1938 seconds
#
# Revision: 0
# Processed by: cddbd v1.5.1PL0 Copyright (c) Steve Scherf et al.
# Submitted via: CDex 1.50beta9
#
DISCID=a507900c
DTITLE=Larry Cunningham - Best Of Country and Irish
DYEAR=1900
DGENRE=Country
TTITLE0=Lovely Leitrim
TTITLE1=There's Been A Change In You
TTITLE2=I Used To Be A Railroad Bum
TTITLE3=Blue Side Of Lonesome
TTITLE4=I Love You Because
TTITLE5=Night Coach To Dallas
TTITLE6=They Wouldn't Do It Now
TTITLE7=Good Old Country Music
TTITLE8=Annaghdown
TTITLE9=Forty Shades Of Green
TTITLE10=Seems Like I'm Always Leaving
TTITLE11=The Emerald Isle Express
EXTD=
EXTT0=
EXTT1=
EXTT2=
EXTT3=
EXTT4=
EXTT5=
EXTT6=
EXTT7=
EXTT8=
EXTT9=
EXTT10=
EXTT11=
PLAYORDER=
